PathFileType	4	(X/Y/Z)	C:/Users/Carlo/Dropbox/Carlos/SARAH/CongressoMarcha2025/WorkshopOpenSim/C3D/Caso02/Walking03.c3d.trc
DataRate	CameraRate	NumFrames	NumMarkers	Units	OrigDataRate	OrigDataStartFrame	OrigNumFrames
100.000000	100.000000	2	197	mm	100.000000	300	400
Frame#	Time	PELO			PELA			PELL			PELP			LFEO			LFEA			LFEL			LFEP			LTIO			LTIA			LTIL			LTIP			LFOO			LFOA			LFOL			LFOP			RFEO			RFEA			RFEL			RFEP			RTIO			RTIA			RTIL			RTIP			RFOO			RFOA			RFOL			RFOP			LTOO			LTOA			LTOL			LTOP			RTOO			RTOA			RTOL			RTOP			HEDO			HEDA			HEDL			HEDP			LCLO			LCLA			LCLL			LCLP			RCLO			RCLA			RCLL			RCLP			TRXO			TRXA			TRXL			TRXP			LHUO			LHUA			LHUL			LHUP			LRAO			LRAA			LRAL			LRAP			LHNO			LHNA			LHNL			LHNP			RHUO			RHUA			RHUL			RHUP			RRAO			RRAA			RRAL			RRAP			RHNO			RHNA			RHNL			RHNP			LFHD			RFHD			RBHD			LSHO			LUPA			LELB			LFRM			LWRA			LWRB			LFIN			RSHO			RUPA			RELB			RFRM			RWRA			RWRB			RFIN			LTHI			LKNE			LTIB			LANK			LTOE			RKNE			RTIB			RANK			LASI			LHEE			LBHD			RTHI			RHEE			RTOE			STRN			RASI			CLAV			RPSI			C7			LPSI			RBAK			T10			LHipAngles			LKneeAngles			LAbsAnkleAngle			LAnkleAngles			RHipAngles			RKneeAngles			RAnkleAngles			RAbsAnkleAngle			LPelvisAngles			RPelvisAngles			LFootProgressAngles			RFootProgressAngles			RNeckAngles			LNeckAngles			RSpineAngles			LSpineAngles			LShoulderAngles			LElbowAngles			LWristAngles			RShoulderAngles			RElbowAngles			RWristAngles			RThoraxAngles			LThoraxAngles			RHeadAngles			LHeadAngles			LHipPower			LKneePower			LAnklePower			RHipPower			RKneePower			RAnklePower			LWaistPower			RWaistPower			LNeckPower			RNeckPower			LShoulderPower			RShoulderPower			LElbowPower			RElbowPower			LWristPower			RWristPower			LGroundReactionForce			LNormalisedGRF			RGroundReactionForce			RNormalisedGRF			LAnkleForce			RAnkleForce			RKneeForce			LKneeForce			RHipForce			LHipForce			LWaistForce			RWaistForce			LNeckForce			RNeckForce			LShoulderForce			RShoulderForce			LElbowForce			RElbowForce			LWristForce			RWristForce			LGroundReactionMoment			RGroundReactionMoment			LAnkleMoment			RAnkleMoment			RKneeMoment			LKneeMoment			RHipMoment			LHipMoment			LWaistMoment			RWaistMoment			LNeckMoment			RNeckMoment			LShoulderMoment			RShoulderMoment			LElbowMoment			RElbowMoment			LWristMoment			RWristMoment			CentreOfMass			CentreOfMassFloor			
		X1	Y1	Z1	X2	Y2	Z2	X3	Y3	Z3	X4	Y4	Z4	X5	Y5	Z5	X6	Y6	Z6	X7	Y7	Z7	X8	Y8	Z8	X9	Y9	Z9	X10	Y10	Z10	X11	Y11	Z11	X12	Y12	Z12	X13	Y13	Z13	X14	Y14	Z14	X15	Y15	Z15	X16	Y16	Z16	X17	Y17	Z17	X18	Y18	Z18	X19	Y19	Z19	X20	Y20	Z20	X21	Y21	Z21	X22	Y22	Z22	X23	Y23	Z23	X24	Y24	Z24	X25	Y25	Z25	X26	Y26	Z26	X27	Y27	Z27	X28	Y28	Z28	X29	Y29	Z29	X30	Y30	Z30	X31	Y31	Z31	X32	Y32	Z32	X33	Y33	Z33	X34	Y34	Z34	X35	Y35	Z35	X36	Y36	Z36	X37	Y37	Z37	X38	Y38	Z38	X39	Y39	Z39	X40	Y40	Z40	X41	Y41	Z41	X42	Y42	Z42	X43	Y43	Z43	X44	Y44	Z44	X45	Y45	Z45	X46	Y46	Z46	X47	Y47	Z47	X48	Y48	Z48	X49	Y49	Z49	X50	Y50	Z50	X51	Y51	Z51	X52	Y52	Z52	X53	Y53	Z53	X54	Y54	Z54	X55	Y55	Z55	X56	Y56	Z56	X57	Y57	Z57	X58	Y58	Z58	X59	Y59	Z59	X60	Y60	Z60	X61	Y61	Z61	X62	Y62	Z62	X63	Y63	Z63	X64	Y64	Z64	X65	Y65	Z65	X66	Y66	Z66	X67	Y67	Z67	X68	Y68	Z68	X69	Y69	Z69	X70	Y70	Z70	X71	Y71	Z71	X72	Y72	Z72	X73	Y73	Z73	X74	Y74	Z74	X75	Y75	Z75	X76	Y76	Z76	X77	Y77	Z77	X78	Y78	Z78	X79	Y79	Z79	X80	Y80	Z80	X81	Y81	Z81	X82	Y82	Z82	X83	Y83	Z83	X84	Y84	Z84	X85	Y85	Z85	X86	Y86	Z86	X87	Y87	Z87	X88	Y88	Z88	X89	Y89	Z89	X90	Y90	Z90	X91	Y91	Z91	X92	Y92	Z92	X93	Y93	Z93	X94	Y94	Z94	X95	Y95	Z95	X96	Y96	Z96	X97	Y97	Z97	X98	Y98	Z98	X99	Y99	Z99	X100	Y100	Z100	X101	Y101	Z101	X102	Y102	Z102	X103	Y103	Z103	X104	Y104	Z104	X105	Y105	Z105	X106	Y106	Z106	X107	Y107	Z107	X108	Y108	Z108	X109	Y109	Z109	X110	Y110	Z110	X111	Y111	Z111	X112	Y112	Z112	X113	Y113	Z113	X114	Y114	Z114	X115	Y115	Z115	X116	Y116	Z116	X117	Y117	Z117	X118	Y118	Z118	X119	Y119	Z119	X120	Y120	Z120	X121	Y121	Z121	X122	Y122	Z122	X123	Y123	Z123	X124	Y124	Z124	X125	Y125	Z125	X126	Y126	Z126	X127	Y127	Z127	X128	Y128	Z128	X129	Y129	Z129	X130	Y130	Z130	X131	Y131	Z131	X132	Y132	Z132	X133	Y133	Z133	X134	Y134	Z134	X135	Y135	Z135	X136	Y136	Z136	X137	Y137	Z137	X138	Y138	Z138	X139	Y139	Z139	X140	Y140	Z140	X141	Y141	Z141	X142	Y142	Z142	X143	Y143	Z143	X144	Y144	Z144	X145	Y145	Z145	X146	Y146	Z146	X147	Y147	Z147	X148	Y148	Z148	X149	Y149	Z149	X150	Y150	Z150	X151	Y151	Z151	X152	Y152	Z152	X153	Y153	Z153	X154	Y154	Z154	X155	Y155	Z155	X156	Y156	Z156	X157	Y157	Z157	X158	Y158	Z158	X159	Y159	Z159	X160	Y160	Z160	X161	Y161	Z161	X162	Y162	Z162	X163	Y163	Z163	X164	Y164	Z164	X165	Y165	Z165	X166	Y166	Z166	X167	Y167	Z167	X168	Y168	Z168	X169	Y169	Z169	X170	Y170	Z170	X171	Y171	Z171	X172	Y172	Z172	X173	Y173	Z173	X174	Y174	Z174	X175	Y175	Z175	X176	Y176	Z176	X177	Y177	Z177	X178	Y178	Z178	X179	Y179	Z179	X180	Y180	Z180	X181	Y181	Z181	X182	Y182	Z182	X183	Y183	Z183	X184	Y184	Z184	X185	Y185	Z185	X186	Y186	Z186	X187	Y187	Z187	X188	Y188	Z188	X189	Y189	Z189	X190	Y190	Z190	X191	Y191	Z191	X192	Y192	Z192	X193	Y193	Z193	X194	Y194	Z194	X195	Y195	Z195	X196	Y196	Z196	X197	Y197	Z197	

301	3	1952.988647460938	891.3150024414067	240.4801025390626	2082.005371093751	890.811157226563	224.7007141113282	1937.208496093751	891.142944335938	111.4626464843751	1953.467895507813	1021.292907714844	240.2481536865236	1798.010131835938	505.0737304687502	179.9085693359376	2181.028564453126	360.2343750000001	232.385467529297	1845.716308593751	482.873718261719	-229.5626525878907	1944.490112304688	891.0324096679692	176.0492401123047	1585.983886718751	111.0306930541993	191.2198791503907	1960.829589843751	-91.13887786865237	174.7442016601563	1566.370849609376	109.3624420166016	-234.5334472656251	1787.873291015626	486.2346801757815	180.4493560791016	1708.963012695313	65.96116638183597	169.0266418457032	1756.485595703126	245.3087615966798	169.1077423095704	1695.169433593751	69.69977569580081	-15.95910644531251	1530.146606445313	113.3365325927735	183.3176879882813	2099.735839843751	492.644226074219	316.7587890625001	2473.384521484376	617.601989746094	164.4795684814454	1959.412353515626	432.3230285644534	-77.05276489257815	1961.487060546876	891.5974731445317	304.9110412597657	2249.405029296876	82.76605987548831	336.6453552246095	2639.320312500001	223.9708862304689	312.4237365722657	2233.105224609376	56.71460723876956	-77.6189880371094	2107.068115234376	472.5632934570315	317.7330017089845	2380.823242187501	112.5574645996094	353.2399902343751	2323.622070312501	292.9551391601564	341.341522216797	2389.134765625001	102.7149200439454	164.0552368164063	2200.224609375001	54.96695327758792	348.3018798828126	1768.568481445313	50.16936492919925	164.2630004882813	1784.409301757813	109.9519195556641	164.2900085449219	1763.970581054688	51.41553115844729	102.6010513305665	1708.963012695313	65.96110534667972	169.0266876220704	2441.022705078126	131.7542724609376	354.8860168457032	2421.955566406251	191.8868713378907	350.919891357422	2443.793212890626	128.4734344482422	291.8244018554689	2380.823242187501	112.5574340820313	353.2399902343751	1906.661621093751	1603.470214843751	240.3131713867189	2132.681152343751	1575.986450195313	241.9691162109376	1909.028564453126	1609.221557617188	12.70768737792969	1934.093261718751	1829.422607421876	246.3080291748048	1919.770263671876	1360.662963867188	47.84787750244142	2122.827880859376	1353.034057617188	-35.2548065185547	1908.327514648438	1574.671020507813	0.2418060302734376	2002.434204101563	1409.026977539063	245.3936462402345	1914.643310546876	1357.600463867188	440.6145629882815	2116.120117187501	1348.745971679688	528.886169433594	1927.411865234376	1143.731201171875	390.0175781250002	2002.434204101563	1409.026977539063	245.3936614990236	2002.433959960938	1409.026977539063	245.3936767578126	2222.030761718751	1399.0126953125	242.7989501953126	2005.100097656251	1410.535278320313	465.212829589844	1992.438476562501	1189.419921875	247.0217742919923	1926.899414062501	1071.861206054688	-11.3046522140503	1634.194091796876	1071.963134765625	-47.07982254028322	1891.841674804688	1012.280700683594	275.3613281250001	1919.770263671876	1360.662963867188	47.84788513183595	2112.579345703126	867.0706176757817	-31.16055488586427	1923.700439453126	701.3956298828127	-88.69316101074222	2081.936767578126	814.9934082031255	219.4037475585939	1939.896972656251	1057.52587890625	-12.69449043273926	2217.192138671876	746.549499511719	-66.24440002441409	2252.432373046876	818.582397460938	-208.6152496337892	2096.716796875001	662.9673461914065	-138.3535461425782	2112.579345703126	867.0705566406255	-31.16063308715822	1808.339233398438	1089.870483398438	478.180114746094	1538.467041015626	1197.361450195313	480.5771179199221	1824.448242187501	1123.891235351563	766.2324829101565	1914.643310546876	1357.600463867188	440.6146240234377	1870.385498046876	822.763061523438	506.2572937011721	1621.011962890626	766.994323730469	526.7897949218752	1884.601074218751	852.7852172851567	760.4530029296877	1812.682373046876	1071.1728515625	480.1454772949221	1886.641723632813	665.0297851562502	528.3172607421877	1939.342041015626	691.282409667969	677.1937255859377	2036.938598632813	672.884948730469	473.728942871094	1870.385620117188	822.7631225585942	506.2572937011721	2109.175048828126	1650.923950195313	180.2013854980469	2100.319824218751	1645.415039062501	306.8037719726564	1958.632812500001	1665.675537109376	313.0581970214845	1916.747070312501	1417.202026367188	35.27074050903322	1936.854125976563	1252.535400390625	-16.75998306274415	1947.697387695313	1080.019409179688	-48.6293640136719	2023.696166992188	973.3776855468755	-67.79383850097659	2140.258789062501	893.331665039063	-19.02100563049317	2088.860595703126	846.076538085938	-55.65207290649417	2170.493164062501	817.9799804687505	-70.35400390625003	1911.279052734376	1413.947265625	453.9450378417971	1862.191284179688	1203.7548828125	509.5401306152346	1828.759033203126	1087.138061523438	516.492126464844	1879.774169921876	948.6596069335942	532.3935546875002	1909.203369140626	824.9817504882817	499.6477355957034	1836.135620117188	823.3322143554692	525.803649902344	1886.766723632813	747.9971313476565	540.5266723632815	1894.211059570313	720.4187622070315	72.12181091308597	1805.001220703126	501.8204040527346	119.9019851684571	1693.849487304688	317.2091064453126	115.3505249023438	1583.912963867188	110.8545379638672	146.2678985595704	1708.611206054688	42.66019439697267	176.6341400146485	2119.834228515626	501.2840576171877	373.1648254394532	2188.013427734376	261.6990356445314	391.4985046386721	2251.170898437501	85.58818054199222	381.5220642089845	1988.757690429688	990.9580078125005	125.3035736083985	1519.946044921875	92.17835235595706	191.3179626464844	1953.642089843751	1666.805053710938	171.7694244384766	2085.613037109376	650.1707763671877	411.3698425292971	2207.696777343751	33.26679611206056	332.1340637207032	2391.243164062501	94.12128448486331	339.6625976562501	2056.300537109376	1235.942993164063	240.6495056152345	2015.430419921876	991.2488403320317	343.3782043457032	2009.426269531251	1408.7080078125	245.3110351562501	1823.481323242188	985.3649291992192	333.6330566406251	1871.952514648438	1482.368896484375	241.1945190429689	1808.580810546876	998.327758789063	198.7136840820314	1785.901855468751	1311.273193359375	283.1889038085939	1805.203979492188	1218.486938476563	249.0933074951173	-2.00774097442627	13.797438621521	-20.481840133667	1.860329627990724	-9.530137062072757	7.323637962341312	0	0	13.51443672180176	0.9177018404006962	-1.925048708915711	13.52221107482911	-3.803054094314577	14.51378440856934	19.01699829101563	-1.276243090629578	-17.82333755493165	-0.5212687849998476	0.8480322957038884	-4.72587299346924	-2.446249723434449	0	0	-2.437899589538575	-0.1022525578737259	-6.972882270812992	0.2112780213356019	0.1022525578737259	6.972882270812992	0.2112780213356019	-0.0251302942633629	-4.417589187622072	-75.16104888916018	-3.598783493041994	-1.492247104644776	-107.6867828369141	1.897342920303346	1.205768823623658	4.332247734069826	-1.897342920303346	-1.205768823623658	4.332247734069826	-0.2934344112873079	6.279439449310306	2.398438930511475	0.2934344112873079	-6.279439449310306	2.398438930511475	11.97757911682129	6.969007015228275	4.07891368865967	0	-4.405068323998231e-12	41.03987503051759	7.805696487426761	103.8997039794922	-3.058961629867555	7.20077466964722	2.324295282363892	-18.96992301940919	0	3.277561598860614e-12	34.52823638916017	1.540232181549073	106.2837600708008	-7.275523662567142	0.4243383407592776	0.6762934923171999	2.606055736541749	-0.4243383407592776	-0.6762934923171999	2.606055736541749	-1.508722543716432	-0.4168363809585574	-6.922087192535404	1.508722543716432	0.4168363809585574	-6.922087192535404	nan	nan	nan	nan	nan	nan	nan	nan	nan	0	-0.1107387617230416	0	0	-0.3738951683044435	0	0	0.08627076447010043	0	nan	nan	nan	nan	nan	nan	nan	nan	nan	nan	nan	nan	0	0.00787294935435057	0	0	-0.002350709633901716	0	0	-0.006863757036626342	0	0	-0.002276714425534011	0	0	-0.0001751655800035224	0	0	9.932873581419702e-06	0	nan	nan	nan	nan	nan	nan	nan	nan	nan	nan	nan	nan	nan	nan	nan	-0.07576163113117221	0.3957253694534304	0.1029485687613488	-0.3863578736782076	0.4948287606239321	1.049124121665955	nan	nan	nan	-0.6904907226562502	1.499013185501099	1.42327618598938	nan	nan	nan	nan	nan	nan	nan	nan	nan	nan	nan	nan	nan	nan	nan	-0.06720767915248874	0.5554414987564089	0.08996690809726718	0.1081781461834908	0.5703264474868777	0.09023489058017733	-0.02263556979596616	0.2257641255855561	-0.09701856225728994	0.04623672738671304	0.229063168168068	-0.1101492941379548	-0.01257512625306845	0.06314489990472796	0.01452730875462294	0.02208776213228703	0.06608388572931292	0.01955346576869488	nan	nan	nan	nan	nan	nan	nan	nan	nan	-8.147557403596388e-15	-5.889307498931887	29.9147129058838	89.4147872924805	-5.335459232330324	244.9602050781251	nan	nan	nan	469.4934387207034	-8.461685180664066	-672.1114501953127	nan	nan	nan	nan	nan	nan	nan	nan	nan	nan	nan	nan	nan	nan	nan	13.88184356689454	-2.085292577743531	18.01985168457032	28.61144638061525	-4.128724575042726	-2.723997831344605	3.30538845062256	0.1126584932208062	-12.07862567901612	7.489407062530521	0.1412436664104462	-21.43556022644044	0.5267480015754702	-1.018444675449549e-15	0.593326270580292	1.469203710556031	-1.847411045213625e-15	1.207509994506836	1944.046386718751	980.753540039063	241.6241455078126	1944.046386718751	0	241.6241455078126	
302	3.01	1967.220092773438	890.706665039063	240.6133880615236	2096.164794921876	890.2637329101567	224.2539215087892	1950.860229492188	890.619506835938	111.6680603027344	1967.648559570313	1020.684875488282	240.471160888672	1810.931640625001	504.4693298339846	179.5848693847657	2194.317626953126	358.3969116210939	228.9754486083986	1855.877929687501	483.7189636230471	-230.671844482422	1958.432128906251	890.4663085937505	176.2211303710938	1589.687744140626	115.5634231567383	190.1866912841797	1959.569702148438	-95.343620300293	172.3770751953126	1569.216186523438	115.6055450439454	-235.4804534912111	1800.353027343751	485.8738098144534	180.0918121337891	1710.918701171876	65.73462677001956	168.5576629638672	1765.350585937501	243.1074829101564	168.6119384765626	1698.034912109376	69.74503326416018	-16.48797607421876	1534.014404296875	120.0185623168946	182.0510864257813	2113.876464843751	491.5688476562502	314.8750915527345	2485.967773437501	616.1389160156252	157.9086608886719	1968.451660156251	431.6733093261721	-77.39044189453128	1976.007812500001	890.9470825195317	305.0056457519532	2255.837158203126	80.770378112793	334.9712829589845	2646.754638671876	214.9911193847657	317.1938476562501	2245.251953125001	56.91458892822268	-77.90466308593753	2120.858642578126	471.3641052246096	315.863494873047	2388.765136718751	103.5329589843751	350.6429443359376	2341.099609375001	286.7297973632814	339.5179748535157	2395.155029296876	93.70234680175784	161.3828125000001	2205.342041015626	55.58371734619143	346.9407348632814	1769.886840820313	47.63995742797853	164.0598449707032	1788.030761718751	106.7642364501954	164.0779571533204	1765.592285156251	48.97677230834964	102.3779602050782	1710.918701171876	65.7346115112305	168.5576324462891	2449.906005859376	119.5160369873047	351.8770751953126	2434.017578125001	180.5816650390626	348.1688537597657	2452.035888671876	116.2392578125001	288.7904052734376	2388.764892578126	103.5329132080079	350.6430664062501	1919.689575195313	1602.978149414063	242.4618682861329	2145.736572265626	1575.703125000001	243.8239593505861	1921.820068359376	1609.269409179688	14.86831665039063	1946.915283203126	1828.941528320313	248.9629516601564	1932.904541015626	1360.420166015625	49.59246826171878	2135.777832031251	1353.501708984375	-33.98752593994142	1920.767944335938	1574.471557617188	2.414920806884767	2015.887573242188	1408.640014648438	247.0252532958986	1928.427246093751	1356.577758789063	442.297058105469	2130.082763671876	1348.090454101563	530.353698730469	1941.719726562501	1142.782592773438	391.2497558593752	2015.887573242188	1408.640014648438	247.0252532958986	2015.887451171876	1408.639892578125	247.0252532958986	2235.530029296876	1399.227905273438	243.9502410888673	2019.007080078126	1409.616577148438	466.8664550781252	2006.490234375001	1188.97802734375	248.1345062255861	1938.003662109376	1071.722534179688	-9.169365882873539	1645.357666015626	1073.546142578125	-43.52351760864259	1903.981079101563	1012.76806640625	277.5223083496095	1932.904541015626	1360.420166015625	49.59244537353518	2121.232910156251	864.8124389648442	-29.97346305847169	1930.140014648438	701.251892089844	-86.28517150878909	2091.471191406251	813.2412109375005	220.813690185547	1950.829589843751	1057.23876953125	-10.62568473815918	2223.944091796876	742.811950683594	-65.43256378173831	2260.060058593751	814.5654907226567	-207.6932373046876	2102.136718750001	661.2131347656252	-137.5129852294922	2121.232910156251	864.8122558593755	-29.97349548339845	1822.664428710938	1088.501953125	479.0492858886721	1552.547607421876	1195.420043945313	481.6023864746096	1838.546020507813	1121.743774414063	767.2226562500002	1928.427246093751	1356.577758789063	442.297058105469	1885.110717773438	821.400756835938	506.418884277344	1635.799560546876	765.1860351562502	526.643249511719	1899.125366210938	850.7351074218755	760.718444824219	1827.035644531251	1069.804931640625	480.9651489257815	1901.588256835938	663.6153564453127	528.1428833007815	1954.294189453126	689.6264648437502	677.0897216796877	2051.888916015626	671.792175292969	473.529968261719	1885.110717773438	821.400756835938	506.4189453125002	2122.087158203126	1650.732788085938	182.2633514404297	2113.385742187501	1644.979248046876	308.8493652343751	1971.635498046876	1665.031982421876	315.3277893066407	1929.697875976563	1416.973999023438	37.12781906127931	1949.224609375001	1252.270629882813	-14.75842285156251	1958.806884765626	1079.694580078125	-46.53134918212892	2033.515258789063	972.241821289063	-66.09210968017581	2149.327636718751	890.631225585938	-17.82376289367676	2097.135742187501	844.2484741210942	-54.46836090087893	2178.326660156251	814.9333496093755	-69.34539794921878	1924.926025390626	1412.888916015625	455.742370605469	1876.286376953126	1202.370361328125	510.7431335449221	1843.086303710938	1085.696411132813	517.354919433594	1894.329589843751	947.2558593750005	532.8850097656252	1923.925170898438	823.6787719726567	499.8067932128909	1850.863525390626	821.8836059570317	525.9736938476565	1901.601806640626	746.5703735351565	540.5272216796877	1906.788208007813	719.879577636719	72.5890808105469	1817.512084960938	501.4313659667971	119.5205841064454	1702.265502929688	319.3630676269532	114.8203887939454	1587.525878906251	115.5678634643555	145.2386474609376	1709.665893554688	42.45583343505861	176.1888580322266	2134.694580078126	500.1431274414065	371.0296325683595	2197.152587890626	258.7291870117189	388.125915527344	2256.988525390626	83.36528015136722	379.8816223144532	2002.439453125001	990.444702148438	125.3992767333985	1523.10888671875	99.13677978515631	190.5637969970704	1966.503295898438	1666.556640625001	173.9932708740235	2101.283203125001	649.531921386719	410.3837890625002	2210.984130859376	34.5448455810547	332.3388977050782	2397.402832031251	84.58441162109378	336.9432067871095	2070.126953125001	1235.588500976563	241.7416534423829	2030.078979492188	990.5919799804692	343.2488403320314	2022.880371093751	1408.340209960938	246.9273376464845	1838.095214843751	984.549194335938	334.7429809570314	1885.015502929688	1481.645874023438	243.2752990722657	1822.505126953126	997.7858886718755	199.9758605957032	1799.590209960938	1310.20947265625	284.8692932128907	1819.078857421876	1217.51611328125	250.6671142578126	-2.147834539413453	13.60779190063477	-20.6213607788086	1.928426027297975	-9.255429267883304	8.552832603454593	0	0	12.63986396789551	0.8191149830818181	-1.536345720291139	12.64448833465577	-3.646120548248293	14.94940948486329	18.93925476074219	-1.222343444824219	-19.34913444519044	0.4691236317157748	0.5322614908218386	-3.371931076049806	-4.467732429504396	0	0	-4.459980964660646	-0.06269945204257968	-7.230564594268802	0.1888857036828996	0.06269945204257968	7.230564594268802	0.1888857036828996	-0.01679819449782372	-4.170589923858644	-72.94110870361331	-3.364052772521974	-1.118752717971802	-104.6500320434571	1.893867373466493	1.269591450691224	4.434466838836672	-1.893867373466493	-1.269591450691224	4.434466838836672	-0.1945035010576249	6.418419837951664	2.263725519180299	0.1945035010576249	-6.418419837951664	2.263725519180299	11.76504516601563	6.927927970886234	3.555652618408205	0	5.507130342030656e-12	40.72610473632814	7.721331596374515	104.2099227905274	-3.192310094833376	7.122951984405521	2.172609567642213	-19.02297592163087	0	9.883573993951793e-13	34.49531173706056	1.572871208190919	106.3356246948243	-7.281726837158207	0.2890610396862031	0.8013610839843754	2.449655771255494	-0.2890610396862031	-0.8013610839843754	2.449655771255494	-1.636154413223267	-0.3428987562656404	-6.87030649185181	1.636154413223267	0.3428987562656404	-6.87030649185181	nan	nan	nan	nan	nan	nan	nan	nan	nan	0	-0.2090823054313661	0	0	-1.402647733688355	0	0	0.0350221134722233	0	nan	nan	nan	nan	nan	nan	nan	nan	nan	nan	nan	nan	0	0.008794239722192291	0	0	-0.003015331923961641	0	0	-0.007350349333137277	0	0	-0.001244422746822238	0	0	-0.0002252989652333782	0	0	2.628201036714019e-05	0	nan	nan	nan	nan	nan	nan	nan	nan	nan	nan	nan	nan	nan	nan	nan	-0.07826054096221927	1.265231013298035	-0.02472956478595735	-0.5611398220062258	0.9955613613128667	3.306259393692018	nan	nan	nan	-2.01893448829651	2.463428735733033	3.313335418701174	nan	nan	nan	nan	nan	nan	nan	nan	nan	nan	nan	nan	nan	nan	nan	-0.0668919458985329	0.5715296268463137	0.09606327116489416	0.09645853936672216	0.5882079005241396	0.09617345035076147	-0.02118025533854962	0.2264003306627275	-0.09975857287645346	0.04536847025156023	0.2345247566699983	-0.1122058853507042	-0.01411691028624774	0.06427066028118136	0.01421184744685889	0.02086076326668263	0.06899987161159518	0.02007214725017548	nan	nan	nan	nan	nan	nan	nan	nan	nan	1.136868351805172e-15	-8.071535110473636	8.05805587768555	120.0066452026368	-7.934771537780765	878.607055664063	nan	nan	nan	1201.041137695313	-28.07853889465333	-2134.317382812501	nan	nan	nan	nan	nan	nan	nan	nan	nan	nan	nan	nan	nan	nan	nan	13.1101303100586	-1.847936034202577	16.71568107604981	27.90991973876955	-4.153805732727053	-2.893108367919923	2.986622571945191	0.1328348517417908	-12.67089653015137	7.546923160552982	0.1459764242172242	-21.19006347656251	0.6960686445236208	4.159635602458226e-16	0.5963621139526369	1.361733436584473	6.158036993843948e-16	1.229354739189148	1957.219604492188	980.1089477539067	242.1611328125001	1957.219604492188	0	242.1611328125001	
